<svg xmlns="http://www.w3.org/2000/svg" xmlns:xlink="http://www.w3.org/1999/xlink" viewBox="0,0,256,256" width="50px" height="50px" fill-rule="nonzero"><g fill="#b4b4b4" fill-rule="nonzero" stroke="none" stroke-width="1" stroke-linecap="butt" stroke-linejoin="miter" stroke-miterlimit="10" stroke-dasharray="" stroke-dashoffset="0" font-family="none" font-weight="none" font-size="none" text-anchor="none" style="mix-blend-mode: normal"><g transform="scale(5.12,5.12)"><path d="M25,1c-2.20914,0 -4,1.79086 -4,4c0,2.20914 1.79086,4 4,4c2.20914,0 4,-1.79086 4,-4c0,-2.20914 -1.79086,-4 -4,-4zM19.40039,7.09961c-4.6,1.9 -7.40039,6.30039 -7.40039,11.90039c0,10.4 -2.8,12.9 -4.5,14.5c-0.8,0.7 -1.5,1.4 -1.5,2.5c0,4 6.2,6 19,6c12.8,0 19,-2 19,-6c0,-1.1 -0.7,-1.8 -1.5,-2.5c-1.7,-1.6 -4.5,-4.1 -4.5,-14.5c0,-5.7 -2.70039,-10.00039 -7.40039,-11.90039c-0.8,2.3 -2.99961,3.90039 -5.59961,3.90039c-2.6,0 -4.79961,-1.60039 -5.59961,-3.90039zM19.09961,43.80078c0.4,3 2.90039,5.19922 5.90039,5.19922c3,0 5.50039,-2.19922 5.90039,-5.19922c-1.9,0.2 -3.90039,0.19922 -5.90039,0.19922c-2,0 -4.00039,0.00078 -5.90039,-0.19922z"></path></g></g></svg>